M48
;DRILL file {KiCad 4.0.7} date 06/13/18 13:38:52
;FORMAT={-:-/ absolute / inch / decimal}
FMAT,2
INCH,TZ
T1C0.016
T2C0.040
%
G90
G05
M72
T1
X5.175Y-3.5
X5.175Y-3.85
X5.25Y-3.85
X5.2939Y-3.8961
X5.3Y-3.625
X5.3Y-3.675
X5.375Y-3.625
X5.425Y-3.675
T2
X4.5Y-3.35
X4.5Y-3.45
X4.5Y-3.55
X4.5Y-3.65
X4.5Y-3.75
X4.5Y-3.85
X4.5Y-3.95
X4.5Y-4.05
X4.5Y-4.15
X4.5Y-4.25
X6.3Y-3.35
X6.3Y-3.45
X6.3Y-3.55
X6.3Y-3.65
X6.3Y-3.75
X6.3Y-3.85
X6.3Y-3.95
X6.3Y-4.05
X6.3Y-4.15
X6.3Y-4.25
T0
M30
