%TF.GenerationSoftware,KiCad,Pcbnew,4.0.7*%
%TF.CreationDate,2018-06-19T02:06:56-05:00*%
%TF.ProjectId,rfm75boosterpack,72666D3735626F6F737465727061636B,rev?*%
%TF.FileFunction,Legend,Bot*%
%FSLAX46Y46*%
G04 Gerber Fmt 4.6, Leading zero omitted, Abs format (unit mm)*
G04 Created by KiCad (PCBNEW 4.0.7) date 06/19/18 02:06:56*
%MOMM*%
%LPD*%
G01*
G04 APERTURE LIST*
%ADD10C,0.150000*%
%ADD11C,0.300000*%
%ADD12C,0.120000*%
G04 APERTURE END LIST*
D10*
D11*
X135250714Y-107358571D02*
X136107857Y-107358571D01*
X135679285Y-107358571D02*
X135679285Y-105858571D01*
X135822142Y-106072857D01*
X135965000Y-106215714D01*
X136107857Y-106287143D01*
X134607857Y-107215714D02*
X134536429Y-107287143D01*
X134607857Y-107358571D01*
X134679286Y-107287143D01*
X134607857Y-107215714D01*
X134607857Y-107358571D01*
X133607857Y-105858571D02*
X133465000Y-105858571D01*
X133322143Y-105930000D01*
X133250714Y-106001429D01*
X133179285Y-106144286D01*
X133107857Y-106430000D01*
X133107857Y-106787143D01*
X133179285Y-107072857D01*
X133250714Y-107215714D01*
X133322143Y-107287143D01*
X133465000Y-107358571D01*
X133607857Y-107358571D01*
X133750714Y-107287143D01*
X133822143Y-107215714D01*
X133893571Y-107072857D01*
X133965000Y-106787143D01*
X133965000Y-106430000D01*
X133893571Y-106144286D01*
X133822143Y-106001429D01*
X133750714Y-105930000D01*
X133607857Y-105858571D01*
X130679286Y-106358571D02*
X130679286Y-107358571D01*
X131322143Y-106358571D02*
X131322143Y-107144286D01*
X131250715Y-107287143D01*
X131107857Y-107358571D01*
X130893572Y-107358571D01*
X130750715Y-107287143D01*
X130679286Y-107215714D01*
X129465000Y-106572857D02*
X129965000Y-106572857D01*
X129965000Y-107358571D02*
X129965000Y-105858571D01*
X129250714Y-105858571D01*
X135750714Y-100143571D02*
X135607857Y-100143571D01*
X135465000Y-100215000D01*
X135393571Y-100286429D01*
X135322142Y-100429286D01*
X135250714Y-100715000D01*
X135250714Y-101072143D01*
X135322142Y-101357857D01*
X135393571Y-101500714D01*
X135465000Y-101572143D01*
X135607857Y-101643571D01*
X135750714Y-101643571D01*
X135893571Y-101572143D01*
X135965000Y-101500714D01*
X136036428Y-101357857D01*
X136107857Y-101072143D01*
X136107857Y-100715000D01*
X136036428Y-100429286D01*
X135965000Y-100286429D01*
X135893571Y-100215000D01*
X135750714Y-100143571D01*
X134607857Y-101500714D02*
X134536429Y-101572143D01*
X134607857Y-101643571D01*
X134679286Y-101572143D01*
X134607857Y-101500714D01*
X134607857Y-101643571D01*
X133107857Y-101643571D02*
X133965000Y-101643571D01*
X133536428Y-101643571D02*
X133536428Y-100143571D01*
X133679285Y-100357857D01*
X133822143Y-100500714D01*
X133965000Y-100572143D01*
X130679286Y-100643571D02*
X130679286Y-101643571D01*
X131322143Y-100643571D02*
X131322143Y-101429286D01*
X131250715Y-101572143D01*
X131107857Y-101643571D01*
X130893572Y-101643571D01*
X130750715Y-101572143D01*
X130679286Y-101500714D01*
X129465000Y-100857857D02*
X129965000Y-100857857D01*
X129965000Y-101643571D02*
X129965000Y-100143571D01*
X129250714Y-100143571D01*
X157666428Y-110533571D02*
X157666428Y-109533571D01*
X157666428Y-109819286D02*
X157595000Y-109676429D01*
X157523571Y-109605000D01*
X157380714Y-109533571D01*
X157237857Y-109533571D01*
X156809286Y-109176429D02*
X156737857Y-109105000D01*
X156595000Y-109033571D01*
X156237857Y-109033571D01*
X156095000Y-109105000D01*
X156023571Y-109176429D01*
X155952143Y-109319286D01*
X155952143Y-109462143D01*
X156023571Y-109676429D01*
X156880714Y-110533571D01*
X155952143Y-110533571D01*
D10*
X111760000Y-111760000D02*
X111760000Y-81280000D01*
X162560000Y-111760000D02*
X111760000Y-111760000D01*
X162560000Y-81280000D02*
X162560000Y-111760000D01*
X111760000Y-81280000D02*
X162560000Y-81280000D01*
D12*
X133215000Y-103720000D02*
X132215000Y-103720000D01*
X132215000Y-102020000D02*
X133215000Y-102020000D01*
X133215000Y-105625000D02*
X132215000Y-105625000D01*
X132215000Y-103925000D02*
X133215000Y-103925000D01*
D10*
X132881666Y-103227143D02*
X132929285Y-103274762D01*
X133072142Y-103322381D01*
X133167380Y-103322381D01*
X133310238Y-103274762D01*
X133405476Y-103179524D01*
X133453095Y-103084286D01*
X133500714Y-102893810D01*
X133500714Y-102750952D01*
X133453095Y-102560476D01*
X133405476Y-102465238D01*
X133310238Y-102370000D01*
X133167380Y-102322381D01*
X133072142Y-102322381D01*
X132929285Y-102370000D01*
X132881666Y-102417619D01*
X131929285Y-103322381D02*
X132500714Y-103322381D01*
X132215000Y-103322381D02*
X132215000Y-102322381D01*
X132310238Y-102465238D01*
X132405476Y-102560476D01*
X132500714Y-102608095D01*
X132881666Y-105132143D02*
X132929285Y-105179762D01*
X133072142Y-105227381D01*
X133167380Y-105227381D01*
X133310238Y-105179762D01*
X133405476Y-105084524D01*
X133453095Y-104989286D01*
X133500714Y-104798810D01*
X133500714Y-104655952D01*
X133453095Y-104465476D01*
X133405476Y-104370238D01*
X133310238Y-104275000D01*
X133167380Y-104227381D01*
X133072142Y-104227381D01*
X132929285Y-104275000D01*
X132881666Y-104322619D01*
X132500714Y-104322619D02*
X132453095Y-104275000D01*
X132357857Y-104227381D01*
X132119761Y-104227381D01*
X132024523Y-104275000D01*
X131976904Y-104322619D01*
X131929285Y-104417857D01*
X131929285Y-104513095D01*
X131976904Y-104655952D01*
X132548333Y-105227381D01*
X131929285Y-105227381D01*
M02*
