%TF.GenerationSoftware,KiCad,Pcbnew,4.0.7*%
%TF.CreationDate,2018-06-19T02:06:56-05:00*%
%TF.ProjectId,rfm75boosterpack,72666D3735626F6F737465727061636B,rev?*%
%TF.FileFunction,Copper,L2,Bot,Signal*%
%FSLAX46Y46*%
G04 Gerber Fmt 4.6, Leading zero omitted, Abs format (unit mm)*
G04 Created by KiCad (PCBNEW 4.0.7) date 06/19/18 02:06:56*
%MOMM*%
%LPD*%
G01*
G04 APERTURE LIST*
%ADD10C,0.150000*%
%ADD11R,1.524000X1.524000*%
%ADD12C,1.524000*%
%ADD13R,1.500000X1.250000*%
%ADD14C,0.600000*%
%ADD15C,0.250000*%
G04 APERTURE END LIST*
D10*
X111760000Y-111760000D02*
X111760000Y-81280000D01*
X162560000Y-111760000D02*
X111760000Y-111760000D01*
X162560000Y-81280000D02*
X162560000Y-111760000D01*
X111760000Y-81280000D02*
X162560000Y-81280000D01*
D11*
X114300000Y-85090000D03*
D12*
X114300000Y-87630000D03*
X114300000Y-90170000D03*
X114300000Y-92710000D03*
X114300000Y-95250000D03*
X114300000Y-97790000D03*
X114300000Y-100330000D03*
X114300000Y-102870000D03*
X114300000Y-105410000D03*
X114300000Y-107950000D03*
X160020000Y-107950000D03*
X160020000Y-105410000D03*
X160020000Y-102870000D03*
X160020000Y-100330000D03*
X160020000Y-97790000D03*
X160020000Y-95250000D03*
X160020000Y-92710000D03*
X160020000Y-90170000D03*
X160020000Y-87630000D03*
D11*
X160020000Y-85090000D03*
D13*
X131465000Y-102870000D03*
X133965000Y-102870000D03*
X131465000Y-104775000D03*
X133965000Y-104775000D03*
D14*
X131445000Y-88900000D03*
X131445000Y-97790000D03*
X140815000Y-98960000D03*
X136525000Y-101600000D03*
X139065000Y-106680000D03*
X133350000Y-97790000D03*
D15*
X131465000Y-102870000D02*
X131465000Y-104775000D01*
X131445000Y-88900000D02*
X131445000Y-97790000D01*
X131445000Y-102850000D02*
X131445000Y-97790000D01*
X131465000Y-102870000D02*
X131445000Y-102850000D01*
X138175000Y-101600000D02*
X136525000Y-101600000D01*
X140815000Y-98960000D02*
X138175000Y-101600000D01*
X116205000Y-106680000D02*
X114935000Y-105410000D01*
X120015000Y-106680000D02*
X116205000Y-106680000D01*
X139065000Y-106680000D02*
X120015000Y-106680000D01*
X114935000Y-105410000D02*
X114300000Y-105410000D01*
X133965000Y-102870000D02*
X133965000Y-104775000D01*
X133350000Y-97790000D02*
X133350000Y-88900000D01*
X129540000Y-85090000D02*
X133350000Y-88900000D01*
X129540000Y-85090000D02*
X114300000Y-85090000D01*
X133965000Y-102870000D02*
X133350000Y-102255000D01*
X133350000Y-102255000D02*
X133350000Y-97790000D01*
M02*
