G04 #@! TF.FileFunction,Legend,Top*
%FSLAX46Y46*%
G04 Gerber Fmt 4.6, Leading zero omitted, Abs format (unit mm)*
G04 Created by KiCad (PCBNEW 4.0.7) date 06/13/18 13:38:50*
%MOMM*%
%LPD*%
G01*
G04 APERTURE LIST*
%ADD10C,0.100000*%
%ADD11C,0.300000*%
%ADD12C,0.150000*%
%ADD13C,0.381000*%
%ADD14C,0.304800*%
G04 APERTURE END LIST*
D10*
D11*
X133560715Y-88308571D02*
X133560715Y-87308571D01*
X133560715Y-87594286D02*
X133632143Y-87451429D01*
X133703572Y-87380000D01*
X133846429Y-87308571D01*
X133989286Y-87308571D01*
X134275000Y-87308571D02*
X134846429Y-87308571D01*
X134489286Y-88308571D02*
X134489286Y-87022857D01*
X134560714Y-86880000D01*
X134703572Y-86808571D01*
X134846429Y-86808571D01*
X135346429Y-88308571D02*
X135346429Y-87308571D01*
X135346429Y-87451429D02*
X135417857Y-87380000D01*
X135560715Y-87308571D01*
X135775000Y-87308571D01*
X135917857Y-87380000D01*
X135989286Y-87522857D01*
X135989286Y-88308571D01*
X135989286Y-87522857D02*
X136060715Y-87380000D01*
X136203572Y-87308571D01*
X136417857Y-87308571D01*
X136560715Y-87380000D01*
X136632143Y-87522857D01*
X136632143Y-88308571D01*
X137203572Y-86808571D02*
X138203572Y-86808571D01*
X137560715Y-88308571D01*
X139489286Y-86808571D02*
X138775000Y-86808571D01*
X138703571Y-87522857D01*
X138775000Y-87451429D01*
X138917857Y-87380000D01*
X139275000Y-87380000D01*
X139417857Y-87451429D01*
X139489286Y-87522857D01*
X139560714Y-87665714D01*
X139560714Y-88022857D01*
X139489286Y-88165714D01*
X139417857Y-88237143D01*
X139275000Y-88308571D01*
X138917857Y-88308571D01*
X138775000Y-88237143D01*
X138703571Y-88165714D01*
X113927144Y-82863571D02*
X114284287Y-83863571D01*
X114641429Y-82863571D01*
X115855715Y-83792143D02*
X115712858Y-83863571D01*
X115427144Y-83863571D01*
X115284286Y-83792143D01*
X115212858Y-83720714D01*
X115141429Y-83577857D01*
X115141429Y-83149286D01*
X115212858Y-83006429D01*
X115284286Y-82935000D01*
X115427144Y-82863571D01*
X115712858Y-82863571D01*
X115855715Y-82935000D01*
X117141429Y-83792143D02*
X116998572Y-83863571D01*
X116712858Y-83863571D01*
X116570000Y-83792143D01*
X116498572Y-83720714D01*
X116427143Y-83577857D01*
X116427143Y-83149286D01*
X116498572Y-83006429D01*
X116570000Y-82935000D01*
X116712858Y-82863571D01*
X116998572Y-82863571D01*
X117141429Y-82935000D01*
X157583571Y-82863571D02*
X157583571Y-84077857D01*
X157512142Y-84220714D01*
X157440714Y-84292143D01*
X157297857Y-84363571D01*
X157083571Y-84363571D01*
X156940714Y-84292143D01*
X157583571Y-83792143D02*
X157440714Y-83863571D01*
X157155000Y-83863571D01*
X157012142Y-83792143D01*
X156940714Y-83720714D01*
X156869285Y-83577857D01*
X156869285Y-83149286D01*
X156940714Y-83006429D01*
X157012142Y-82935000D01*
X157155000Y-82863571D01*
X157440714Y-82863571D01*
X157583571Y-82935000D01*
X158297857Y-82863571D02*
X158297857Y-83863571D01*
X158297857Y-83006429D02*
X158369285Y-82935000D01*
X158512143Y-82863571D01*
X158726428Y-82863571D01*
X158869285Y-82935000D01*
X158940714Y-83077857D01*
X158940714Y-83863571D01*
X160297857Y-83863571D02*
X160297857Y-82363571D01*
X160297857Y-83792143D02*
X160155000Y-83863571D01*
X159869286Y-83863571D01*
X159726428Y-83792143D01*
X159655000Y-83720714D01*
X159583571Y-83577857D01*
X159583571Y-83149286D01*
X159655000Y-83006429D01*
X159726428Y-82935000D01*
X159869286Y-82863571D01*
X160155000Y-82863571D01*
X160297857Y-82935000D01*
D12*
X111760000Y-111760000D02*
X111760000Y-81280000D01*
X162560000Y-111760000D02*
X111760000Y-111760000D01*
X162560000Y-81280000D02*
X162560000Y-111760000D01*
X111760000Y-81280000D02*
X162560000Y-81280000D01*
D13*
X111760000Y-81280000D02*
X162560000Y-81280000D01*
X162560000Y-81280000D02*
X162560000Y-111760000D01*
X162560000Y-111760000D02*
X111760000Y-111760000D01*
X111760000Y-111760000D02*
X111760000Y-81280000D01*
D12*
X130175000Y-82550000D02*
X142875000Y-82550000D01*
X142875000Y-82550000D02*
X142875000Y-99060000D01*
X142875000Y-99060000D02*
X130175000Y-99060000D01*
X130175000Y-99060000D02*
X130175000Y-82550000D01*
D14*
X109347000Y-95050429D02*
X109347000Y-96139000D01*
X109274428Y-96356714D01*
X109129285Y-96501857D01*
X108911571Y-96574429D01*
X108766428Y-96574429D01*
X110871000Y-96574429D02*
X110000143Y-96574429D01*
X110435571Y-96574429D02*
X110435571Y-95050429D01*
X110290428Y-95268143D01*
X110145286Y-95413286D01*
X110000143Y-95485857D01*
X110526286Y-78540429D02*
X111397143Y-78540429D01*
X110961714Y-80064429D02*
X110961714Y-78540429D01*
X111905143Y-80064429D02*
X111905143Y-79048429D01*
X111905143Y-78540429D02*
X111832572Y-78613000D01*
X111905143Y-78685571D01*
X111977715Y-78613000D01*
X111905143Y-78540429D01*
X111905143Y-78685571D01*
X112268000Y-80209571D02*
X113429143Y-80209571D01*
X114300000Y-79266143D02*
X114517714Y-79338714D01*
X114590286Y-79411286D01*
X114662857Y-79556429D01*
X114662857Y-79774143D01*
X114590286Y-79919286D01*
X114517714Y-79991857D01*
X114372572Y-80064429D01*
X113792000Y-80064429D01*
X113792000Y-78540429D01*
X114300000Y-78540429D01*
X114445143Y-78613000D01*
X114517714Y-78685571D01*
X114590286Y-78830714D01*
X114590286Y-78975857D01*
X114517714Y-79121000D01*
X114445143Y-79193571D01*
X114300000Y-79266143D01*
X113792000Y-79266143D01*
X115533714Y-80064429D02*
X115388572Y-79991857D01*
X115316000Y-79919286D01*
X115243429Y-79774143D01*
X115243429Y-79338714D01*
X115316000Y-79193571D01*
X115388572Y-79121000D01*
X115533714Y-79048429D01*
X115751429Y-79048429D01*
X115896572Y-79121000D01*
X115969143Y-79193571D01*
X116041714Y-79338714D01*
X116041714Y-79774143D01*
X115969143Y-79919286D01*
X115896572Y-79991857D01*
X115751429Y-80064429D01*
X115533714Y-80064429D01*
X116912571Y-80064429D02*
X116767429Y-79991857D01*
X116694857Y-79919286D01*
X116622286Y-79774143D01*
X116622286Y-79338714D01*
X116694857Y-79193571D01*
X116767429Y-79121000D01*
X116912571Y-79048429D01*
X117130286Y-79048429D01*
X117275429Y-79121000D01*
X117348000Y-79193571D01*
X117420571Y-79338714D01*
X117420571Y-79774143D01*
X117348000Y-79919286D01*
X117275429Y-79991857D01*
X117130286Y-80064429D01*
X116912571Y-80064429D01*
X118001143Y-79991857D02*
X118146286Y-80064429D01*
X118436571Y-80064429D01*
X118581714Y-79991857D01*
X118654286Y-79846714D01*
X118654286Y-79774143D01*
X118581714Y-79629000D01*
X118436571Y-79556429D01*
X118218857Y-79556429D01*
X118073714Y-79483857D01*
X118001143Y-79338714D01*
X118001143Y-79266143D01*
X118073714Y-79121000D01*
X118218857Y-79048429D01*
X118436571Y-79048429D01*
X118581714Y-79121000D01*
X119089714Y-79048429D02*
X119670285Y-79048429D01*
X119307428Y-78540429D02*
X119307428Y-79846714D01*
X119380000Y-79991857D01*
X119525142Y-80064429D01*
X119670285Y-80064429D01*
X120758857Y-79991857D02*
X120613714Y-80064429D01*
X120323428Y-80064429D01*
X120178285Y-79991857D01*
X120105714Y-79846714D01*
X120105714Y-79266143D01*
X120178285Y-79121000D01*
X120323428Y-79048429D01*
X120613714Y-79048429D01*
X120758857Y-79121000D01*
X120831428Y-79266143D01*
X120831428Y-79411286D01*
X120105714Y-79556429D01*
X121484571Y-80064429D02*
X121484571Y-79048429D01*
X121484571Y-79338714D02*
X121557143Y-79193571D01*
X121629714Y-79121000D01*
X121774857Y-79048429D01*
X121920000Y-79048429D01*
X122065143Y-80209571D02*
X123226286Y-80209571D01*
X124024572Y-78540429D02*
X124024572Y-79629000D01*
X123952000Y-79846714D01*
X123806857Y-79991857D01*
X123589143Y-80064429D01*
X123444000Y-80064429D01*
X125548572Y-80064429D02*
X124677715Y-80064429D01*
X125113143Y-80064429D02*
X125113143Y-78540429D01*
X124968000Y-78758143D01*
X124822858Y-78903286D01*
X124677715Y-78975857D01*
D12*
X135763095Y-88987381D02*
X135763095Y-89796905D01*
X135810714Y-89892143D01*
X135858333Y-89939762D01*
X135953571Y-89987381D01*
X136144048Y-89987381D01*
X136239286Y-89939762D01*
X136286905Y-89892143D01*
X136334524Y-89796905D01*
X136334524Y-88987381D01*
X137334524Y-89987381D02*
X136763095Y-89987381D01*
X137048809Y-89987381D02*
X137048809Y-88987381D01*
X136953571Y-89130238D01*
X136858333Y-89225476D01*
X136763095Y-89273095D01*
M02*
