%TF.GenerationSoftware,KiCad,Pcbnew,4.0.7*%
%TF.CreationDate,2018-06-19T02:06:56-05:00*%
%TF.ProjectId,rfm75boosterpack,72666D3735626F6F737465727061636B,rev?*%
%TF.FileFunction,Soldermask,Top*%
%FSLAX46Y46*%
G04 Gerber Fmt 4.6, Leading zero omitted, Abs format (unit mm)*
G04 Created by KiCad (PCBNEW 4.0.7) date 06/19/18 02:06:56*
%MOMM*%
%LPD*%
G01*
G04 APERTURE LIST*
%ADD10C,0.150000*%
%ADD11C,0.300000*%
%ADD12R,1.924000X1.924000*%
%ADD13C,1.924000*%
%ADD14O,1.300000X2.400000*%
G04 APERTURE END LIST*
D10*
D11*
X123731429Y-108898571D02*
X123731429Y-110398571D01*
X123731429Y-109827143D02*
X123588572Y-109898571D01*
X123302858Y-109898571D01*
X123160000Y-109827143D01*
X123088572Y-109755714D01*
X123017143Y-109612857D01*
X123017143Y-109184286D01*
X123088572Y-109041429D01*
X123160000Y-108970000D01*
X123302858Y-108898571D01*
X123588572Y-108898571D01*
X123731429Y-108970000D01*
X125088572Y-109827143D02*
X124945715Y-109898571D01*
X124660001Y-109898571D01*
X124517143Y-109827143D01*
X124445715Y-109755714D01*
X124374286Y-109612857D01*
X124374286Y-109184286D01*
X124445715Y-109041429D01*
X124517143Y-108970000D01*
X124660001Y-108898571D01*
X124945715Y-108898571D01*
X125088572Y-108970000D01*
X126517143Y-109898571D02*
X125660000Y-109898571D01*
X126088572Y-109898571D02*
X126088572Y-108398571D01*
X125945715Y-108612857D01*
X125802857Y-108755714D01*
X125660000Y-108827143D01*
X127874286Y-108398571D02*
X127160000Y-108398571D01*
X127088571Y-109112857D01*
X127160000Y-109041429D01*
X127302857Y-108970000D01*
X127660000Y-108970000D01*
X127802857Y-109041429D01*
X127874286Y-109112857D01*
X127945714Y-109255714D01*
X127945714Y-109612857D01*
X127874286Y-109755714D01*
X127802857Y-109827143D01*
X127660000Y-109898571D01*
X127302857Y-109898571D01*
X127160000Y-109827143D01*
X127088571Y-109755714D01*
X129731428Y-109898571D02*
X129731428Y-108898571D01*
X129731428Y-109184286D02*
X129802856Y-109041429D01*
X129874285Y-108970000D01*
X130017142Y-108898571D01*
X130159999Y-108898571D01*
X131302856Y-109898571D02*
X131302856Y-109112857D01*
X131231427Y-108970000D01*
X131088570Y-108898571D01*
X130802856Y-108898571D01*
X130659999Y-108970000D01*
X131302856Y-109827143D02*
X131159999Y-109898571D01*
X130802856Y-109898571D01*
X130659999Y-109827143D01*
X130588570Y-109684286D01*
X130588570Y-109541429D01*
X130659999Y-109398571D01*
X130802856Y-109327143D01*
X131159999Y-109327143D01*
X131302856Y-109255714D01*
X132659999Y-109898571D02*
X132659999Y-108398571D01*
X132659999Y-109827143D02*
X132517142Y-109898571D01*
X132231428Y-109898571D01*
X132088570Y-109827143D01*
X132017142Y-109755714D01*
X131945713Y-109612857D01*
X131945713Y-109184286D01*
X132017142Y-109041429D01*
X132088570Y-108970000D01*
X132231428Y-108898571D01*
X132517142Y-108898571D01*
X132659999Y-108970000D01*
X133374285Y-109898571D02*
X133374285Y-108898571D01*
X133374285Y-108398571D02*
X133302856Y-108470000D01*
X133374285Y-108541429D01*
X133445713Y-108470000D01*
X133374285Y-108398571D01*
X133374285Y-108541429D01*
X134302857Y-109898571D02*
X134159999Y-109827143D01*
X134088571Y-109755714D01*
X134017142Y-109612857D01*
X134017142Y-109184286D01*
X134088571Y-109041429D01*
X134159999Y-108970000D01*
X134302857Y-108898571D01*
X134517142Y-108898571D01*
X134659999Y-108970000D01*
X134731428Y-109041429D01*
X134802857Y-109184286D01*
X134802857Y-109612857D01*
X134731428Y-109755714D01*
X134659999Y-109827143D01*
X134517142Y-109898571D01*
X134302857Y-109898571D01*
X135445714Y-109898571D02*
X135445714Y-108398571D01*
X135445714Y-108970000D02*
X135588571Y-108898571D01*
X135874285Y-108898571D01*
X136017142Y-108970000D01*
X136088571Y-109041429D01*
X136160000Y-109184286D01*
X136160000Y-109612857D01*
X136088571Y-109755714D01*
X136017142Y-109827143D01*
X135874285Y-109898571D01*
X135588571Y-109898571D01*
X135445714Y-109827143D01*
X137445714Y-109898571D02*
X137445714Y-109112857D01*
X137374285Y-108970000D01*
X137231428Y-108898571D01*
X136945714Y-108898571D01*
X136802857Y-108970000D01*
X137445714Y-109827143D02*
X137302857Y-109898571D01*
X136945714Y-109898571D01*
X136802857Y-109827143D01*
X136731428Y-109684286D01*
X136731428Y-109541429D01*
X136802857Y-109398571D01*
X136945714Y-109327143D01*
X137302857Y-109327143D01*
X137445714Y-109255714D01*
X138088571Y-109827143D02*
X138231428Y-109898571D01*
X138517143Y-109898571D01*
X138660000Y-109827143D01*
X138731428Y-109684286D01*
X138731428Y-109612857D01*
X138660000Y-109470000D01*
X138517143Y-109398571D01*
X138302857Y-109398571D01*
X138160000Y-109327143D01*
X138088571Y-109184286D01*
X138088571Y-109112857D01*
X138160000Y-108970000D01*
X138302857Y-108898571D01*
X138517143Y-108898571D01*
X138660000Y-108970000D01*
X139945714Y-109827143D02*
X139802857Y-109898571D01*
X139517143Y-109898571D01*
X139374286Y-109827143D01*
X139302857Y-109684286D01*
X139302857Y-109112857D01*
X139374286Y-108970000D01*
X139517143Y-108898571D01*
X139802857Y-108898571D01*
X139945714Y-108970000D01*
X140017143Y-109112857D01*
X140017143Y-109255714D01*
X139302857Y-109398571D01*
X142731428Y-109184286D02*
X142660000Y-109112857D01*
X142517143Y-109041429D01*
X142374285Y-109041429D01*
X142231428Y-109112857D01*
X142160000Y-109184286D01*
X142088571Y-109327143D01*
X142088571Y-109470000D01*
X142160000Y-109612857D01*
X142231428Y-109684286D01*
X142374285Y-109755714D01*
X142517143Y-109755714D01*
X142660000Y-109684286D01*
X142731428Y-109612857D01*
X142731428Y-109041429D02*
X142731428Y-109612857D01*
X142802857Y-109684286D01*
X142874285Y-109684286D01*
X143017143Y-109612857D01*
X143088571Y-109470000D01*
X143088571Y-109112857D01*
X142945714Y-108898571D01*
X142731428Y-108755714D01*
X142445714Y-108684286D01*
X142160000Y-108755714D01*
X141945714Y-108898571D01*
X141802857Y-109112857D01*
X141731428Y-109398571D01*
X141802857Y-109684286D01*
X141945714Y-109898571D01*
X142160000Y-110041429D01*
X142445714Y-110112857D01*
X142731428Y-110041429D01*
X142945714Y-109898571D01*
X144374285Y-109898571D02*
X144374285Y-108398571D01*
X144374285Y-109827143D02*
X144231428Y-109898571D01*
X143945714Y-109898571D01*
X143802856Y-109827143D01*
X143731428Y-109755714D01*
X143659999Y-109612857D01*
X143659999Y-109184286D01*
X143731428Y-109041429D01*
X143802856Y-108970000D01*
X143945714Y-108898571D01*
X144231428Y-108898571D01*
X144374285Y-108970000D01*
X145731428Y-108898571D02*
X145731428Y-109898571D01*
X145088571Y-108898571D02*
X145088571Y-109684286D01*
X145159999Y-109827143D01*
X145302857Y-109898571D01*
X145517142Y-109898571D01*
X145659999Y-109827143D01*
X145731428Y-109755714D01*
X146445714Y-108898571D02*
X146445714Y-110398571D01*
X146445714Y-108970000D02*
X146588571Y-108898571D01*
X146874285Y-108898571D01*
X147017142Y-108970000D01*
X147088571Y-109041429D01*
X147160000Y-109184286D01*
X147160000Y-109612857D01*
X147088571Y-109755714D01*
X147017142Y-109827143D01*
X146874285Y-109898571D01*
X146588571Y-109898571D01*
X146445714Y-109827143D01*
X148017143Y-109898571D02*
X147874285Y-109827143D01*
X147802857Y-109684286D01*
X147802857Y-108398571D01*
X148588571Y-109898571D02*
X148588571Y-108898571D01*
X148588571Y-108398571D02*
X148517142Y-108470000D01*
X148588571Y-108541429D01*
X148659999Y-108470000D01*
X148588571Y-108398571D01*
X148588571Y-108541429D01*
X149945714Y-109827143D02*
X149802857Y-109898571D01*
X149517143Y-109898571D01*
X149374285Y-109827143D01*
X149302857Y-109755714D01*
X149231428Y-109612857D01*
X149231428Y-109184286D01*
X149302857Y-109041429D01*
X149374285Y-108970000D01*
X149517143Y-108898571D01*
X149802857Y-108898571D01*
X149945714Y-108970000D01*
X150802857Y-109898571D02*
X150659999Y-109827143D01*
X150588571Y-109755714D01*
X150517142Y-109612857D01*
X150517142Y-109184286D01*
X150588571Y-109041429D01*
X150659999Y-108970000D01*
X150802857Y-108898571D01*
X151017142Y-108898571D01*
X151159999Y-108970000D01*
X151231428Y-109041429D01*
X151302857Y-109184286D01*
X151302857Y-109612857D01*
X151231428Y-109755714D01*
X151159999Y-109827143D01*
X151017142Y-109898571D01*
X150802857Y-109898571D01*
D10*
X111760000Y-111760000D02*
X111760000Y-81280000D01*
X162560000Y-111760000D02*
X111760000Y-111760000D01*
X162560000Y-81280000D02*
X162560000Y-111760000D01*
X111760000Y-81280000D02*
X162560000Y-81280000D01*
D12*
X114300000Y-85090000D03*
D13*
X114300000Y-87630000D03*
X114300000Y-90170000D03*
X114300000Y-92710000D03*
X114300000Y-95250000D03*
X114300000Y-97790000D03*
X114300000Y-100330000D03*
X114300000Y-102870000D03*
X114300000Y-105410000D03*
X114300000Y-107950000D03*
X160020000Y-107950000D03*
X160020000Y-105410000D03*
X160020000Y-102870000D03*
X160020000Y-100330000D03*
X160020000Y-97790000D03*
X160020000Y-95250000D03*
X160020000Y-92710000D03*
X160020000Y-90170000D03*
X160020000Y-87630000D03*
D12*
X160020000Y-85090000D03*
D14*
X140815000Y-98960000D03*
X139545000Y-98960000D03*
X138275000Y-98960000D03*
X137005000Y-98960000D03*
X135735000Y-98960000D03*
X134465000Y-98960000D03*
X133195000Y-98960000D03*
X131925000Y-98960000D03*
M02*
